M48
;GenerationSoftware,Autodesk,EAGLE,9.6.2*%
;CreationDate,2021-09-17T03:10:22Z*%
FMAT,2
ICI,OFF
METRIC,TZ,000.000
T3C0.305
T2C1.016
T1C3.302
%
G90
M71
T1
X100584Y48768
X132080Y80264
X2540Y22860
X22860Y22860
X2540Y2540
X22860Y2540
X28448Y22860
X48768Y22860
X28448Y2540
X48768Y2540
X54356Y22860
X74676Y22860
X54356Y2540
X74676Y2540
X80264Y22860
X100584Y22860
X80264Y2540
X100584Y2540
X106172Y22860
X126492Y22860
X106172Y2540
X126492Y2540
X132080Y22860
X152400Y22860
X132080Y2540
X152400Y2540
X2540Y48768
X22860Y48768
X2540Y28448
X22860Y28448
X28448Y48768
X48768Y48768
X28448Y28448
X48768Y28448
X54356Y48768
X74676Y48768
X54356Y28448
X74676Y28448
X80264Y48768
X28448Y100584
X80264Y28448
X100584Y28448
X106172Y48768
X126492Y48768
X106172Y28448
X126492Y28448
X132080Y48768
X152400Y48768
X132080Y28448
X152400Y28448
X2540Y74676
X22860Y74676
X2540Y54356
X22860Y54356
X28448Y74676
X48768Y74676
X28448Y54356
X48768Y54356
X54356Y74676
X74676Y74676
X54356Y54356
X74676Y54356
X80264Y74676
X100584Y74676
X80264Y54356
X100584Y54356
X106172Y74676
X126492Y74676
X106172Y54356
X126492Y54356
X132080Y74676
X152400Y74676
X132080Y54356
X152400Y54356
X2540Y100584
X22860Y100584
X2540Y80264
X22860Y80264
X152400Y80264
X48768Y100584
X28448Y80264
X48768Y80264
X54356Y100584
X74676Y100584
X54356Y80264
X74676Y80264
X80264Y100584
X100584Y100584
X80264Y80264
X100584Y80264
X106172Y100584
X126492Y100584
X106172Y80264
X126492Y80264
X132080Y100584
X152400Y100584
T2
X37338Y1270
X139700Y101854
X6350Y1270
X8890Y1270
X11430Y1270
X13970Y1270
X16510Y1270
X15240Y24130
X19050Y1270
X12700Y24130
X10160Y24130
X32258Y1270
X34798Y1270
X39878Y1270
X42418Y1270
X41148Y24130
X44958Y1270
X38608Y24130
X36068Y24130
X58166Y1270
X60706Y1270
X63246Y1270
X65786Y1270
X68326Y1270
X67056Y24130
X70866Y1270
X64516Y24130
X61976Y24130
X84074Y1270
X86614Y1270
X89154Y1270
X91694Y1270
X94234Y1270
X92964Y24130
X96774Y1270
X90424Y24130
X87884Y24130
X109982Y1270
X112522Y1270
X115062Y1270
X117602Y1270
X120142Y1270
X118872Y24130
X122682Y1270
X116332Y24130
X113792Y24130
X135890Y1270
X138430Y1270
X140970Y1270
X143510Y1270
X146050Y1270
X144780Y24130
X148590Y1270
X142240Y24130
X139700Y24130
X6350Y27178
X8890Y27178
X11430Y27178
X13970Y27178
X16510Y27178
X15240Y50038
X19050Y27178
X12700Y50038
X10160Y50038
X32258Y27178
X34798Y27178
X37338Y27178
X39878Y27178
X42418Y27178
X41148Y50038
X44958Y27178
X38608Y50038
X36068Y50038
X58166Y27178
X60706Y27178
X63246Y27178
X65786Y27178
X68326Y27178
X67056Y50038
X70866Y27178
X64516Y50038
X61976Y50038
X84074Y27178
X86614Y27178
X89154Y27178
X91694Y27178
X94234Y27178
X92964Y50038
X96774Y27178
X90424Y50038
X87884Y50038
X109982Y27178
X112522Y27178
X115062Y27178
X117602Y27178
X120142Y27178
X118872Y50038
X122682Y27178
X116332Y50038
X113792Y50038
X135890Y27178
X138430Y27178
X140970Y27178
X143510Y27178
X146050Y27178
X144780Y50038
X148590Y27178
X142240Y50038
X139700Y50038
X6350Y53086
X8890Y53086
X11430Y53086
X13970Y53086
X16510Y53086
X15240Y75946
X19050Y53086
X12700Y75946
X10160Y75946
X32258Y53086
X34798Y53086
X37338Y53086
X39878Y53086
X42418Y53086
X41148Y75946
X44958Y53086
X38608Y75946
X36068Y75946
X58166Y53086
X60706Y53086
X63246Y53086
X65786Y53086
X68326Y53086
X67056Y75946
X70866Y53086
X64516Y75946
X61976Y75946
X84074Y53086
X86614Y53086
X89154Y53086
X91694Y53086
X94234Y53086
X92964Y75946
X96774Y53086
X90424Y75946
X87884Y75946
X109982Y53086
X112522Y53086
X115062Y53086
X117602Y53086
X120142Y53086
X118872Y75946
X122682Y53086
X116332Y75946
X113792Y75946
X135890Y53086
X138430Y53086
X140970Y53086
X143510Y53086
X146050Y53086
X144780Y75946
X148590Y53086
X142240Y75946
X139700Y75946
X6350Y78994
X8890Y78994
X11430Y78994
X13970Y78994
X16510Y78994
X15240Y101854
X19050Y78994
X12700Y101854
X10160Y101854
X32258Y78994
X34798Y78994
X37338Y78994
X39878Y78994
X42418Y78994
X41148Y101854
X44958Y78994
X38608Y101854
X36068Y101854
X58166Y78994
X60706Y78994
X63246Y78994
X65786Y78994
X68326Y78994
X67056Y101854
X70866Y78994
X64516Y101854
X61976Y101854
X84074Y78994
X86614Y78994
X89154Y78994
X91694Y78994
X94234Y78994
X92964Y101854
X96774Y78994
X90424Y101854
X87884Y101854
X109982Y78994
X112522Y78994
X115062Y78994
X117602Y78994
X120142Y78994
X118872Y101854
X122682Y78994
X116332Y101854
X113792Y101854
X135890Y78994
X138430Y78994
X140970Y78994
X143510Y78994
X146050Y78994
X144780Y101854
X148590Y78994
X142240Y101854
T3
X151130Y16510
X144233Y17311
X133731Y17018
X137795Y9906
X133367Y10050
X137160Y14630
X134112Y8509
X145415Y11684
X148209Y12700
X144148Y8890
X138176Y12675
X146050Y12548
X131318Y12573
X132334Y20320
X140335Y8890
X142240Y19050
X132588Y9644
X133477Y17856
X3683Y39116
X21717Y39243
X8890Y33528
X5080Y33528
X20320Y36068
X17780Y40640
X14478Y36449
X17653Y35814
X5080Y31750
X11811Y38608
X14478Y38608
X12700Y38608
X4953Y41148
X8890Y37211
X6096Y44069
X19050Y46228
X15240Y33655
X10922Y38608
X13589Y38608
X9906Y36576
X12700Y41402
X20320Y41402
X9779Y41402
X6985Y41656
X13970Y32258
X22860Y32258
X22487Y41402
X19050Y41402
X13577Y41275
X15621Y41275
X6232Y40649
X11430Y31623
X19304Y32893
X13462Y35941
X7620Y36449
X16515Y35809
X6731Y42672
X21590Y42418
X14693Y43219
X4191Y42926
X8255Y35814
X3827Y35958
X7620Y40538
X4572Y34417
X15875Y37592
X18669Y38608
X14608Y34798
X8636Y38583
X16510Y38456
X1778Y38481
X2794Y46228
X10795Y34798
X12700Y44958
X3048Y35552
X3937Y43764
X29591Y39116
X47625Y39243
X34798Y33528
X30988Y33528
X46228Y36068
X43688Y40640
X40386Y36449
X43561Y35814
X30988Y31750
X37719Y38608
X40386Y38608
X38608Y38608
X30861Y41148
X34798Y37211
X32004Y44069
X44958Y46228
X41148Y33655
X36830Y38608
X39497Y38608
X35814Y36576
X38608Y41402
X46228Y41402
X35687Y41402
X32893Y41656
X39878Y32258
X48768Y32258
X48395Y41402
X44958Y41402
X39485Y41275
X41529Y41275
X32140Y40649
X37338Y31623
X45212Y32893
X39370Y35941
X33528Y36449
X42423Y35809
X32639Y42672
X47498Y42418
X40601Y43219
X30099Y42926
X34163Y35814
X29735Y35958
X33528Y40538
X30480Y34417
X41783Y37592
X44577Y38608
X40516Y34798
X34544Y38583
X42418Y38456
X27686Y38481
X28702Y46228
X36703Y34798
X38608Y44958
X28956Y35552
X29845Y43764
X55499Y39116
X73533Y39243
X60706Y33528
X56896Y33528
X72136Y36068
X69596Y40640
X66294Y36449
X69469Y35814
X56896Y31750
X63627Y38608
X66294Y38608
X64516Y38608
X56769Y41148
X60706Y37211
X57912Y44069
X70866Y46228
X67056Y33655
X62738Y38608
X65405Y38608
X61722Y36576
X64516Y41402
X72136Y41402
X61595Y41402
X58801Y41656
X65786Y32258
X74676Y32258
X74303Y41402
X70866Y41402
X65393Y41275
X67437Y41275
X58048Y40649
X63246Y31623
X71120Y32893
X65278Y35941
X59436Y36449
X68331Y35809
X58547Y42672
X73406Y42418
X66509Y43219
X56007Y42926
X60071Y35814
X55643Y35958
X59436Y40538
X56388Y34417
X67691Y37592
X70485Y38608
X66424Y34798
X60452Y38583
X68326Y38456
X53594Y38481
X54610Y46228
X62611Y34798
X64516Y44958
X54864Y35552
X55753Y43764
X81407Y39116
X99441Y39243
X86614Y33528
X82804Y33528
X98044Y36068
X95504Y40640
X92202Y36449
X95377Y35814
X82804Y31750
X89535Y38608
X92202Y38608
X90424Y38608
X82677Y41148
X86614Y37211
X83820Y44069
X96774Y46228
X92964Y33655
X88646Y38608
X91313Y38608
X87630Y36576
X90424Y41402
X98044Y41402
X87503Y41402
X84709Y41656
X91694Y32258
X100584Y32258
X100211Y41402
X96774Y41402
X91301Y41275
X93345Y41275
X83956Y40649
X89154Y31623
X97028Y32893
X91186Y35941
X85344Y36449
X94239Y35809
X84455Y42672
X99314Y42418
X92417Y43219
X81915Y42926
X85979Y35814
X81551Y35958
X85344Y40538
X82296Y34417
X93599Y37592
X96393Y38608
X92332Y34798
X86360Y38583
X94234Y38456
X79502Y38481
X80518Y46228
X88519Y34798
X90424Y44958
X80772Y35552
X81661Y43764
X107315Y39116
X125349Y39243
X112522Y33528
X108712Y33528
X123952Y36068
X121412Y40640
X118110Y36449
X121285Y35814
X108712Y31750
X115443Y38608
X118110Y38608
X116332Y38608
X108585Y41148
X112522Y37211
X109728Y44069
X122682Y46228
X118872Y33655
X114554Y38608
X117221Y38608
X113538Y36576
X116332Y41402
X123952Y41402
X113411Y41402
X110617Y41656
X117602Y32258
X126492Y32258
X126119Y41402
X122682Y41402
X117209Y41275
X119253Y41275
X109864Y40649
X115062Y31623
X122936Y32893
X117094Y35941
X111252Y36449
X120147Y35809
X110363Y42672
X125222Y42418
X118325Y43219
X107823Y42926
X111887Y35814
X107459Y35958
X111252Y40538
X108204Y34417
X119507Y37592
X122301Y38608
X118240Y34798
X112268Y38583
X120142Y38456
X105410Y38481
X106426Y46228
X114427Y34798
X116332Y44958
X106680Y35552
X107569Y43764
X133223Y39116
X151257Y39243
X138430Y33528
X134620Y33528
X149860Y36068
X147320Y40640
X144018Y36449
X147193Y35814
X134620Y31750
X141351Y38608
X144018Y38608
X142240Y38608
X134493Y41148
X138430Y37211
X135636Y44069
X148590Y46228
X144780Y33655
X140462Y38608
X143129Y38608
X139446Y36576
X142240Y41402
X149860Y41402
X139319Y41402
X136525Y41656
X143510Y32258
X152400Y32258
X152027Y41402
X148590Y41402
X143117Y41275
X145161Y41275
X135772Y40649
X140970Y31623
X148844Y32893
X143002Y35941
X137160Y36449
X146055Y35809
X136271Y42672
X151130Y42418
X144233Y43219
X133731Y42926
X137795Y35814
X133367Y35958
X137160Y40538
X134112Y34417
X145415Y37592
X148209Y38608
X144148Y34798
X138176Y38583
X146050Y38456
X131318Y38481
X132334Y46228
X140335Y34798
X142240Y44958
X132588Y35552
X133477Y43764
X3683Y65024
X21717Y65151
X8890Y59436
X5080Y59436
X20320Y61976
X17780Y66548
X14478Y62357
X17653Y61722
X5080Y57658
X11811Y64516
X14478Y64516
X12700Y64516
X4953Y67056
X8890Y63119
X6096Y69977
X19050Y72136
X15240Y59563
X10922Y64516
X13589Y64516
X9906Y62484
X12700Y67310
X20320Y67310
X9779Y67310
X6985Y67564
X13970Y58166
X22860Y58166
X22487Y67310
X19050Y67310
X13577Y67183
X15621Y67183
X6232Y66557
X11430Y57531
X19304Y58801
X13462Y61849
X7620Y62357
X16515Y61717
X6731Y68580
X21590Y68326
X14693Y69127
X4191Y68834
X8255Y61722
X3827Y61866
X7620Y66446
X4572Y60325
X15875Y63500
X18669Y64516
X14608Y60706
X8636Y64491
X16510Y64364
X1778Y64389
X2794Y72136
X10795Y60706
X12700Y70866
X3048Y61460
X3937Y69672
X29591Y65024
X47625Y65151
X34798Y59436
X30988Y59436
X46228Y61976
X43688Y66548
X40386Y62357
X43561Y61722
X30988Y57658
X37719Y64516
X40386Y64516
X38608Y64516
X30861Y67056
X34798Y63119
X32004Y69977
X44958Y72136
X41148Y59563
X36830Y64516
X39497Y64516
X35814Y62484
X38608Y67310
X46228Y67310
X35687Y67310
X32893Y67564
X39878Y58166
X48768Y58166
X48395Y67310
X44958Y67310
X39485Y67183
X41529Y67183
X32140Y66557
X37338Y57531
X45212Y58801
X39370Y61849
X33528Y62357
X42423Y61717
X32639Y68580
X47498Y68326
X40601Y69127
X30099Y68834
X34163Y61722
X29735Y61866
X33528Y66446
X30480Y60325
X41783Y63500
X44577Y64516
X40516Y60706
X34544Y64491
X42418Y64364
X27686Y64389
X28702Y72136
X36703Y60706
X38608Y70866
X28956Y61460
X29845Y69672
X55499Y65024
X73533Y65151
X60706Y59436
X56896Y59436
X72136Y61976
X69596Y66548
X66294Y62357
X69469Y61722
X56896Y57658
X63627Y64516
X66294Y64516
X64516Y64516
X56769Y67056
X60706Y63119
X57912Y69977
X70866Y72136
X67056Y59563
X62738Y64516
X65405Y64516
X61722Y62484
X64516Y67310
X72136Y67310
X61595Y67310
X58801Y67564
X65786Y58166
X74676Y58166
X74303Y67310
X70866Y67310
X65393Y67183
X67437Y67183
X58048Y66557
X63246Y57531
X71120Y58801
X65278Y61849
X59436Y62357
X68331Y61717
X58547Y68580
X73406Y68326
X66509Y69127
X56007Y68834
X60071Y61722
X55643Y61866
X59436Y66446
X56388Y60325
X67691Y63500
X70485Y64516
X81915Y17018
X60452Y64491
X68326Y64364
X53594Y64389
X54610Y72136
X62611Y60706
X64516Y70866
X54864Y61460
X55753Y69672
X81407Y65024
X99441Y65151
X86614Y59436
X82804Y59436
X98044Y61976
X95504Y66548
X92202Y62357
X95377Y61722
X82804Y57658
X89535Y64516
X92202Y64516
X90424Y64516
X82677Y67056
X86614Y63119
X83820Y69977
X96774Y72136
X92964Y59563
X88646Y64516
X91313Y64516
X87630Y62484
X90424Y67310
X98044Y67310
X87503Y67310
X84709Y67564
X91694Y58166
X100584Y58166
X100211Y67310
X96774Y67310
X91301Y67183
X93345Y67183
X83956Y66557
X89154Y57531
X97028Y58801
X91186Y61849
X85344Y62357
X94239Y61717
X84455Y68580
X99314Y68326
X92417Y69127
X81915Y68834
X85979Y61722
X81551Y61866
X85344Y66446
X82296Y60325
X93599Y63500
X96393Y64516
X92332Y60706
X86360Y64491
X94234Y64364
X79502Y64389
X80518Y72136
X88519Y60706
X90424Y70866
X80772Y61460
X81661Y69672
X107315Y65024
X125349Y65151
X112522Y59436
X108712Y59436
X123952Y61976
X121412Y66548
X118110Y62357
X121285Y61722
X108712Y57658
X115443Y64516
X118110Y64516
X116332Y64516
X108585Y67056
X112522Y63119
X109728Y69977
X122682Y72136
X118872Y59563
X114554Y64516
X117221Y64516
X113538Y62484
X116332Y67310
X123952Y67310
X113411Y67310
X110617Y67564
X117602Y58166
X126492Y58166
X126119Y67310
X122682Y67310
X117209Y67183
X119253Y67183
X109864Y66557
X115062Y57531
X122936Y58801
X117094Y61849
X111252Y62357
X120147Y61717
X110363Y68580
X125222Y68326
X118325Y69127
X107823Y68834
X111887Y61722
X107459Y61866
X111252Y66446
X108204Y60325
X119507Y63500
X122301Y64516
X118240Y60706
X112268Y64491
X120142Y64364
X105410Y64389
X106426Y72136
X114427Y60706
X116332Y70866
X106680Y61460
X107569Y69672
X133223Y65024
X151257Y65151
X138430Y59436
X134620Y59436
X149860Y61976
X147320Y66548
X144018Y62357
X147193Y61722
X134620Y57658
X141351Y64516
X144018Y64516
X142240Y64516
X134493Y67056
X138430Y63119
X135636Y69977
X148590Y72136
X144780Y59563
X140462Y64516
X143129Y64516
X139446Y62484
X142240Y67310
X149860Y67310
X139319Y67310
X136525Y67564
X143510Y58166
X152400Y58166
X152027Y67310
X148590Y67310
X143117Y67183
X145161Y67183
X135772Y66557
X140970Y57531
X148844Y58801
X143002Y61849
X137160Y62357
X146055Y61717
X136271Y68580
X151130Y68326
X144233Y69127
X133731Y68834
X137795Y61722
X133367Y61866
X137160Y66446
X134112Y60325
X145415Y63500
X148209Y64516
X144148Y60706
X138176Y64491
X146050Y64364
X131318Y64389
X132334Y72136
X140335Y60706
X142240Y70866
X132588Y61460
X133477Y69672
X3683Y90932
X21717Y91059
X8890Y85344
X5080Y85344
X20320Y87884
X17780Y92456
X14478Y88265
X17653Y87630
X5080Y83566
X11811Y90424
X14478Y90424
X12700Y90424
X4953Y92964
X8890Y89027
X6096Y95885
X19050Y98044
X15240Y85471
X10922Y90424
X13589Y90424
X9906Y88392
X12700Y93218
X20320Y93218
X9779Y93218
X6985Y93472
X13970Y84074
X22860Y84074
X22487Y93218
X19050Y93218
X13577Y93091
X15621Y93091
X6232Y92465
X11430Y83439
X19304Y84709
X13462Y87757
X7620Y88265
X16515Y87625
X6731Y94488
X21590Y94234
X14693Y95035
X4191Y94742
X8255Y87630
X3827Y87774
X7620Y92354
X4572Y86233
X15875Y89408
X18669Y90424
X14608Y86614
X8636Y90399
X16510Y90272
X1778Y90297
X2794Y98044
X10795Y86614
X12700Y96774
X3048Y87368
X3937Y95580
X29591Y90932
X47625Y91059
X34798Y85344
X30988Y85344
X46228Y87884
X43688Y92456
X40386Y88265
X43561Y87630
X30988Y83566
X37719Y90424
X40386Y90424
X38608Y90424
X30861Y92964
X34798Y89027
X32004Y95885
X44958Y98044
X41148Y85471
X36830Y90424
X39497Y90424
X35814Y88392
X38608Y93218
X46228Y93218
X35687Y93218
X32893Y93472
X39878Y84074
X48768Y84074
X48395Y93218
X44958Y93218
X39485Y93091
X41529Y93091
X32140Y92465
X37338Y83439
X45212Y84709
X39370Y87757
X33528Y88265
X42423Y87625
X32639Y94488
X47498Y94234
X40601Y95035
X30099Y94742
X34163Y87630
X29735Y87774
X33528Y92354
X30480Y86233
X41783Y89408
X44577Y90424
X40516Y86614
X34544Y90399
X42418Y90272
X27686Y90297
X28702Y98044
X36703Y86614
X38608Y96774
X28956Y87368
X29845Y95580
X55499Y90932
X73533Y91059
X60706Y85344
X56896Y85344
X72136Y87884
X69596Y92456
X66294Y88265
X69469Y87630
X56896Y83566
X63627Y90424
X66294Y90424
X64516Y90424
X56769Y92964
X60706Y89027
X57912Y95885
X70866Y98044
X67056Y85471
X62738Y90424
X65405Y90424
X61722Y88392
X64516Y93218
X72136Y93218
X61595Y93218
X58801Y93472
X65786Y84074
X74676Y84074
X74303Y93218
X70866Y93218
X65393Y93091
X67437Y93091
X58048Y92465
X63246Y83439
X71120Y84709
X65278Y87757
X59436Y88265
X68331Y87625
X58547Y94488
X73406Y94234
X66509Y95035
X56007Y94742
X60071Y87630
X55643Y87774
X59436Y92354
X56388Y86233
X67691Y89408
X70485Y90424
X66424Y86614
X60452Y90399
X68326Y90272
X53594Y90297
X54610Y98044
X62611Y86614
X64516Y96774
X54864Y87368
X55753Y95580
X81407Y90932
X99441Y91059
X86614Y85344
X82804Y85344
X98044Y87884
X95504Y92456
X92202Y88265
X95377Y87630
X82804Y83566
X89535Y90424
X92202Y90424
X90424Y90424
X82677Y92964
X86614Y89027
X83820Y95885
X96774Y98044
X92964Y85471
X88646Y90424
X91313Y90424
X87630Y88392
X90424Y93218
X98044Y93218
X87503Y93218
X84709Y93472
X91694Y84074
X100584Y84074
X100211Y93218
X96774Y93218
X91301Y93091
X93345Y93091
X83956Y92465
X89154Y83439
X97028Y84709
X91186Y87757
X85344Y88265
X94239Y87625
X84455Y94488
X99314Y94234
X92417Y95035
X81915Y94742
X85979Y87630
X81551Y87774
X85344Y92354
X82296Y86233
X93599Y89408
X96393Y90424
X92332Y86614
X86360Y90399
X94234Y90272
X79502Y90297
X80518Y98044
X88519Y86614
X90424Y96774
X80772Y87368
X81661Y95580
X107315Y90932
X125349Y91059
X112522Y85344
X108712Y85344
X123952Y87884
X121412Y92456
X118110Y88265
X121285Y87630
X108712Y83566
X115443Y90424
X118110Y90424
X116332Y90424
X108585Y92964
X3683Y13208
X109728Y95885
X122682Y98044
X118872Y85471
X114554Y90424
X117221Y90424
X113538Y88392
X116332Y93218
X123952Y93218
X113411Y93218
X110617Y93472
X117602Y84074
X126492Y84074
X126119Y93218
X122682Y93218
X117209Y93091
X119253Y93091
X109864Y92465
X115062Y83439
X122936Y84709
X117094Y87757
X111252Y88265
X120147Y87625
X110363Y94488
X125222Y94234
X118325Y95035
X107823Y94742
X111887Y87630
X107459Y87774
X111252Y92354
X108204Y86233
X119507Y89408
X122301Y90424
X118240Y86614
X112268Y90399
X120142Y90272
X105410Y90297
X106426Y98044
X114427Y86614
X116332Y96774
X106680Y87368
X107569Y95580
X133223Y90932
X151257Y91059
X138430Y85344
X134620Y85344
X149860Y87884
X147320Y92456
X144018Y88265
X147193Y87630
X134620Y83566
X141351Y90424
X144018Y90424
X142240Y90424
X134493Y92964
X138430Y89027
X135636Y95885
X148590Y98044
X144780Y85471
X140462Y90424
X143129Y90424
X139446Y88392
X142240Y93218
X149860Y93218
X139319Y93218
X136525Y93472
X143510Y84074
X152400Y84074
X152027Y93218
X148590Y93218
X143117Y93091
X145161Y93091
X135772Y92465
X140970Y83439
X148844Y84709
X143002Y87757
X137160Y88265
X146055Y87625
X136271Y94488
X151130Y94234
X144233Y95035
X133731Y94742
X137795Y87630
X133367Y87774
X137160Y92354
X134112Y86233
X145415Y89408
X148209Y90424
X144148Y86614
X138176Y90399
X146050Y90272
X131318Y90297
X132334Y98044
X140335Y86614
X142240Y96774
X132588Y87368
X133477Y95580
X21717Y13335
X8890Y7620
X5080Y7620
X20320Y10160
X17780Y14732
X14478Y10541
X17653Y9906
X5080Y5842
X11811Y12700
X14478Y12700
X12700Y12700
X4953Y15240
X8890Y11303
X6096Y18161
X19050Y20320
X15240Y7747
X10922Y12700
X13589Y12700
X9906Y10668
X12700Y15494
X20320Y15494
X9779Y15494
X6985Y15748
X13970Y6350
X22860Y6350
X22487Y15494
X19050Y15494
X13577Y15367
X15621Y15367
X6232Y14741
X11430Y5715
X19304Y6985
X13462Y10033
X7620Y10541
X16515Y9901
X6731Y16764
X21590Y16510
X14693Y17311
X4191Y17018
X8255Y9906
X3827Y10050
X7620Y14630
X4572Y8509
X15875Y11684
X18669Y12700
X14608Y8890
X8636Y12675
X16510Y12548
X1778Y12573
X2794Y20320
X10795Y8890
X12700Y19050
X3048Y9644
X3937Y17856
X29591Y13208
X47625Y13335
X34798Y7620
X30988Y7620
X46228Y10160
X43688Y14732
X40386Y10541
X43561Y9906
X30988Y5842
X37719Y12700
X40386Y12700
X38608Y12700
X30861Y15240
X34798Y11303
X32004Y18161
X44958Y20320
X41148Y7747
X36830Y12700
X39497Y12700
X35814Y10668
X38608Y15494
X46228Y15494
X35687Y15494
X32893Y15748
X39878Y6350
X48768Y6350
X48395Y15494
X44958Y15494
X39485Y15367
X41529Y15367
X32140Y14741
X37338Y5715
X45212Y6985
X39370Y10033
X33528Y10541
X42423Y9901
X32639Y16764
X47498Y16510
X40601Y17311
X30099Y17018
X34163Y9906
X29735Y10050
X33528Y14630
X30480Y8509
X41783Y11684
X44577Y12700
X40516Y8890
X34544Y12675
X42418Y12548
X27686Y12573
X28702Y20320
X36703Y8890
X38608Y19050
X66424Y60706
X28956Y9644
X29845Y17856
X55499Y13208
X73533Y13335
X60706Y7620
X56896Y7620
X72136Y10160
X69596Y14732
X66294Y10541
X69469Y9906
X56896Y5842
X63627Y12700
X66294Y12700
X64516Y12700
X56769Y15240
X60706Y11303
X57912Y18161
X70866Y20320
X67056Y7747
X62738Y12700
X65405Y12700
X61722Y10668
X64516Y15494
X72136Y15494
X61595Y15494
X58801Y15748
X65786Y6350
X74676Y6350
X74303Y15494
X70866Y15494
X65393Y15367
X67437Y15367
X58048Y14741
X63246Y5715
X71120Y6985
X65278Y10033
X59436Y10541
X68331Y9901
X58547Y16764
X73406Y16510
X66509Y17311
X56007Y17018
X60071Y9906
X55643Y10050
X59436Y14630
X56388Y8509
X67691Y11684
X70485Y12700
X66424Y8890
X60452Y12675
X68326Y12548
X53594Y12573
X54610Y20320
X62611Y8890
X64516Y19050
X54864Y9644
X55753Y17856
X81407Y13208
X99441Y13335
X86614Y7620
X82804Y7620
X98044Y10160
X95504Y14732
X92202Y10541
X95377Y9906
X82804Y5842
X89535Y12700
X92202Y12700
X90424Y12700
X82677Y15240
X86614Y11303
X83820Y18161
X96774Y20320
X92964Y7747
X88646Y12700
X91313Y12700
X87630Y10668
X90424Y15494
X98044Y15494
X87503Y15494
X84709Y15748
X91694Y6350
X100584Y6350
X100211Y15494
X96774Y15494
X91301Y15367
X93345Y15367
X83956Y14741
X89154Y5715
X97028Y6985
X91186Y10033
X85344Y10541
X94239Y9901
X84455Y16764
X99314Y16510
X92417Y17311
X85979Y9906
X81551Y10050
X85344Y14630
X82296Y8509
X93599Y11684
X96393Y12700
X92332Y8890
X86360Y12675
X94234Y12548
X79502Y12573
X80518Y20320
X88519Y8890
X90424Y19050
X80772Y9644
X81661Y17856
X107315Y13208
X125349Y13335
X112522Y7620
X108712Y7620
X123952Y10160
X121412Y14732
X118110Y10541
X121285Y9906
X108712Y5842
X115443Y12700
X118110Y12700
X116332Y12700
X108585Y15240
X112522Y11303
X109728Y18161
X122682Y20320
X118872Y7747
X114554Y12700
X117221Y12700
X113538Y10668
X116332Y15494
X123952Y15494
X113411Y15494
X110617Y15748
X117602Y6350
X126492Y6350
X126119Y15494
X122682Y15494
X117209Y15367
X119253Y15367
X109864Y14741
X115062Y5715
X122936Y6985
X117094Y10033
X111252Y10541
X120147Y9901
X110363Y16764
X125222Y16510
X118325Y17311
X107823Y17018
X111887Y9906
X107459Y10050
X111252Y14630
X108204Y8509
X119507Y11684
X122301Y12700
X118240Y8890
X112268Y12675
X120142Y12548
X105410Y12573
X106426Y20320
X114427Y8890
X116332Y19050
X106680Y9644
X107569Y17856
X133223Y13208
X151257Y13335
X138430Y7620
X134620Y7620
X149860Y10160
X147320Y14732
X144018Y10541
X147193Y9906
X134620Y5842
X141351Y12700
X144018Y12700
X142240Y12700
X134493Y15240
X138430Y11303
X135636Y18161
X148590Y20320
X144780Y7747
X140462Y12700
X143129Y12700
X139446Y10668
X142240Y15494
X149860Y15494
X139319Y15494
X136525Y15748
X143510Y6350
X152400Y6350
X152027Y15494
X148590Y15494
X143117Y15367
X145161Y15367
X135772Y14741
X140970Y5715
X148844Y6985
X143002Y10033
X137160Y10541
X146055Y9901
X136271Y16764
X112522Y89027
M30